<svg width="554" height="300" viewBox="0 0 554 300" fill="none" xmlns="http://www.w3.org/2000/svg">
<rect x="59" width="500" height="100" fill="black"/>
<rect x="59" y="100" width="500" height="100" fill="white"/>
<rect x="59" y="200" width="500" height="100" fill="#009639"/>
<path d="M0 74.9999C1.69126e-05 33.5785 27.808 5.5097e-06 62.1108 5.5097e-06C80.1189 4.42611e-05 96.336 9.2548 107.681 24.0396L223 149.246L106.471 277.269C95.1981 291.296 79.488 300 62.1108 300C27.808 300 0 266.085 0 224.25C2.22456e-06 186.054 23.1799 154.463 53.319 149.254C23.1797 144.098 0 112.817 0 74.9999Z" fill="#ED2E38"/>
</svg>
